<svg width="793.701" height="793.701" viewBox="0 0 21000 21000" xmlns="http://www.w3.org/2000/svg" xmlns:xlink="http://www.w3.org/1999/xlink" fill-rule="evenodd" clip-rule="evenodd" overflow="hidden"><defs></defs><g id="Katman_x0020_1"><g id="_3042994467648"><circle cx="10500" cy="10500" r="10000" fill="#FFFFFF"/><g><path d="M11923 6003C11922 6075 11924 6147 11932 6218 11940 6290 11954 6361 11974 6431 12014 6566 12052 6701 12119 6825 12155 6892 12194 6959 12240 7018 12296 7088 12369 7143 12441 7193 12527 7252 12614 7311 12713 7347 12728 7353 12745 7356 12759 7364 12840 7411 12933 7420 13022 7436 13116 7453 13212 7445 13307 7421 13419 7394 13526 7356 13623 7292 13656 7271 13688 7248 13721 7227 13765 7199 13801 7162 13840 7129 13872 7101 13900 7066 13930 7036 13991 6974 14047 6907 14094 6835 14155 6740 14199 6633 14223 6523 14299 6170 14314 5817 14204 5466 14185 5406 14163 5349 14136 5291 14092 5195 14020 5121 13952 5044 13896 4979 13844 4910 13781 4849 13741 4810 13696 4783 13647 4761 13578 4729 13500 4723 13426 4717 13298 4707 13169 4699 13040 4724 12939 4744 12836 4749 12739 4788 12680 4812 12617 4828 12558 4853 12477 4888 12398 4926 12322 4971 12217 5031 12150 5120 12093 5221 12068 5266 12060 5318 12039 5364 11999 5449 11977 5539 11957 5629 11929 5751 11926 5878 11923 6003ZM10786 5053C10779 4979 10785 4910 10770 4840 10749 4734 10741 4628 10678 4532 10629 4457 10571 4389 10507 4328 10458 4281 10394 4250 10337 4210 10283 4173 10223 4146 10167 4113 10114 4083 10059 4053 10004 4029 9928 3996 9851 3963 9770 3943 9748 3938 9723 3934 9708 3921 9648 3869 9568 3871 9500 3839 9442 3811 9374 3804 9311 3786 9213 3759 9110 3748 9009 3729 8937 3716 8863 3720 8790 3724 8769 3725 8748 3725 8728 3731 8632 3761 8542 3801 8458 3861 8367 3926 8270 3983 8182 4054 8154 4076 8137 4111 8104 4124 8063 4142 8032 4173 8009 4204 7950 4284 7885 4358 7832 4442 7755 4564 7708 4697 7666 4833 7642 4908 7635 4989 7630 5069 7619 5232 7640 5392 7657 5552 7665 5630 7676 5707 7689 5784 7709 5906 7771 6013 7825 6123 7876 6228 7949 6317 8008 6416 8020 6435 8035 6453 8052 6469 8148 6560 8256 6635 8370 6702 8457 6753 8554 6789 8649 6825 8721 6852 8798 6867 8872 6879 9051 6909 9230 6909 9410 6869 9546 6837 9677 6796 9804 6736 9863 6708 9919 6674 9974 6639 10050 6590 10121 6533 10189 6472 10255 6412 10318 6349 10373 6280 10434 6204 10488 6123 10539 6039 10614 5917 10669 5785 10707 5649 10763 5453 10776 5251 10786 5053ZM8545 2887C8534 2845 8496 2817 8480 2775 8434 2655 8369 2544 8320 2426 8289 2350 8268 2274 8244 2197 8227 2140 8226 2081 8207 2018 8233 2035 8248 2049 8261 2070 8295 2127 8335 2179 8386 2223 8414 2248 8437 2279 8463 2307 8522 2373 8588 2434 8641 2507 8646 2514 8653 2519 8662 2516 8677 2511 8671 2497 8672 2487 8675 2389 8677 2291 8684 2194 8692 2087 8696 1980 8725 1878 8754 1773 8780 1663 8865 1583 8893 1556 8927 1521 8964 1535 8999 1548 8991 1597 8993 1632 8998 1702 8986 1774 9003 1842 9025 1932 9040 2022 9054 2113 9071 2220 9103 2324 9145 2423 9168 2477 9199 2528 9234 2577 9291 2660 9363 2731 9429 2807 9451 2833 9481 2853 9508 2874 9562 2918 9615 2963 9673 3001 9716 3030 9756 3062 9798 3092 9873 3145 9950 3195 10026 3247 10106 3302 10191 3350 10273 3401 10348 3448 10424 3495 10499 3544 10546 3575 10595 3606 10638 3643 10675 3676 10720 3699 10752 3740 10771 3763 10798 3781 10821 3802 10885 3859 10939 3925 10991 3992 11032 4044 11064 4103 11101 4158 11142 4217 11163 4284 11199 4345 11220 4380 11227 4423 11245 4460 11289 4546 11305 4641 11340 4730 11363 4787 11372 4849 11385 4910 11392 4943 11406 4975 11416 5007 11420 5019 11427 5024 11436 5014 11457 4994 11484 4981 11500 4952 11540 4876 11568 4795 11599 4715 11628 4641 11665 4569 11710 4502 11782 4395 11871 4308 11974 4230 12068 4161 12168 4106 12271 4054 12374 4003 12483 3967 12589 3924 12676 3889 12768 3882 12856 3859 12968 3829 13085 3825 13197 3801 13315 3775 13435 3771 13552 3743 13648 3720 13747 3709 13842 3680 13953 3647 14064 3610 14166 3555 14272 3498 14374 3430 14461 3342 14517 3285 14569 3226 14618 3163 14706 3050 14777 2927 14842 2800 14871 2744 14885 2681 14923 2630 14932 2618 14932 2609 14946 2628 14958 2646 14967 2663 14968 2684 14976 2808 14959 2927 14912 3043 14899 3074 14895 3109 14883 3142 14855 3222 14828 3302 14795 3380 14750 3485 14702 3590 14650 3692 14614 3763 14568 3829 14527 3897 14520 3910 14513 3924 14510 3941 14707 3825 14900 3703 15045 3519 15041 3588 15031 3652 14986 3711 14950 3758 14916 3805 14875 3847 14841 3881 14805 3914 14774 3950 14743 3985 14700 4005 14673 4044 14651 4075 14616 4095 14587 4118 14521 4169 14461 4229 14387 4271 14377 4277 14362 4283 14369 4299 14375 4311 14389 4305 14399 4303 14496 4285 14589 4259 14678 4215 14739 4184 14799 4151 14857 4116 14896 4093 14938 4070 14973 4036 14999 4011 15035 3996 15063 3971 15101 3938 15140 3906 15179 3873 15187 3866 15194 3854 15207 3860 15222 3868 15215 3882 15212 3893 15198 3939 15175 3981 15146 4019 15085 4100 15010 4170 14930 4231 14857 4287 14780 4339 14702 4390 14622 4443 14538 4492 14453 4537 14360 4587 14261 4626 14153 4645 14039 4666 13925 4676 13810 4687 13801 4688 13788 4686 13785 4697 13782 4709 13787 4721 13798 4729 13844 4763 13891 4796 13935 4832 13993 4880 14056 4921 14113 4972 14223 5071 14280 5202 14343 5330 14414 5472 14456 5622 14490 5776 14531 5968 14530 6160 14499 6350 14485 6437 14468 6526 14436 6610 14389 6735 14337 6857 14266 6971 14217 7051 14165 7129 14103 7199 14053 7257 13996 7309 13933 7356 13898 7382 13862 7408 13828 7437 13787 7471 13737 7496 13690 7523 13576 7587 13455 7631 13325 7651 13209 7668 13096 7647 12983 7632 12967 7629 12951 7624 12934 7630 12940 7650 12959 7644 12972 7651 13063 7698 13158 7739 13246 7793 13364 7867 13481 7947 13582 8044 13626 8087 13667 8134 13707 8182 13776 8264 13825 8357 13873 8451 13890 8486 13899 8526 13907 8565 13926 8659 13953 8753 13945 8851 13934 8980 13915 9108 13874 9231 13840 9337 13794 9441 13735 9535 13686 9612 13633 9688 13575 9760 13536 9808 13497 9855 13458 9902 13433 9932 13408 9968 13371 9992 13339 10013 13317 10048 13288 10075 13222 10136 13155 10196 13087 10257 13030 10308 12967 10352 12911 10404 12872 10440 12824 10464 12783 10498 12716 10554 12645 10603 12573 10652 12488 10709 12394 10755 12311 10815 12234 10870 12149 10912 12069 10964 12014 11000 11953 11029 11892 11057 11839 11081 11788 11110 11729 11120 11722 11121 11714 11126 11704 11117 11718 11092 11739 11072 11762 11057 11840 11005 11917 10953 11999 10907 12094 10855 12186 10796 12279 10741 12376 10684 12469 10622 12560 10558 12640 10502 12715 10440 12792 10381 12854 10333 12911 10278 12966 10224 13032 10161 13093 10092 13149 10019 13187 9968 13227 9918 13261 9865 13332 9756 13388 9641 13436 9520 13471 9429 13487 9336 13511 9243 13555 9077 13556 8908 13541 8738 13531 8623 13494 8512 13449 8407 13415 8325 13353 8257 13296 8187 13258 8141 13215 8099 13181 8050 13160 8020 13131 7996 13104 7973 13046 7924 12992 7871 12936 7820 12881 7769 12825 7718 12769 7667 12734 7635 12694 7605 12657 7575 12604 7532 12548 7494 12490 7460 12406 7413 12322 7366 12237 7321 12140 7270 12053 7203 11978 7121 11921 7059 11865 6996 11817 6929 11756 6842 11732 6740 11705 6638 11658 6458 11637 6274 11631 6088 11627 5955 11648 5826 11681 5699 11695 5648 11709 5597 11729 5547 11735 5531 11738 5515 11734 5491 11696 5521 11660 5548 11626 5576 11549 5639 11476 5706 11390 5758 11378 5766 11376 5765 11366 5757 11309 5707 11273 5641 11230 5581 11180 5514 11139 5440 11081 5379 11080 5377 11076 5378 11073 5378 11064 5394 11069 5412 11066 5430 11050 5565 11030 5700 10990 5830 10954 5943 10907 6052 10852 6157 10810 6239 10764 6320 10708 6393 10654 6464 10599 6536 10538 6603 10487 6659 10435 6715 10379 6765 10320 6818 10259 6869 10195 6917 10119 6974 10041 7027 9959 7074 9903 7106 9844 7135 9786 7164 9712 7202 9632 7216 9559 7254 9539 7264 9514 7265 9491 7272 9271 7339 9046 7344 8819 7323 8804 7322 8787 7318 8764 7327 8802 7349 8828 7378 8857 7403 8897 7437 8935 7473 8968 7514 9042 7603 9103 7699 9149 7808 9233 8007 9255 8213 9235 8425 9222 8552 9200 8679 9163 8801 9140 8876 9123 8954 9092 9027 9046 9140 9003 9254 8952 9364 8909 9460 8861 9553 8809 9644 8755 9737 8704 9831 8648 9922 8614 9978 8579 10034 8544 10089 8512 10140 8479 10191 8444 10240 8408 10290 8377 10342 8340 10391 8301 10443 8268 10499 8229 10550 8199 10588 8171 10629 8142 10668 8095 10732 8044 10794 7999 10860 7947 10936 7888 11007 7831 11079 7776 11149 7721 11222 7660 11289 7621 11332 7590 11382 7551 11425 7498 11486 7449 11550 7397 11612 7359 11657 7322 11705 7286 11752 7251 11796 7216 11841 7179 11884 7143 11923 7108 11962 7075 12004 7037 12051 6991 12092 6951 12138 6897 12200 6838 12258 6783 12319 6697 12413 6603 12500 6514 12591 6430 12675 6339 12751 6250 12829 6190 12882 6131 12936 6072 12989 6016 13039 5961 13091 5903 13139 5844 13187 5796 13247 5737 13294 5700 13323 5668 13358 5631 13389 5598 13417 5560 13443 5533 13478 5510 13508 5478 13526 5451 13551 5338 13657 5207 13741 5081 13831 5041 13859 5000 13888 4961 13919 4888 13976 4808 14024 4733 14078 4666 14127 4595 14172 4526 14219 4476 14253 4424 14285 4370 14315 4311 14348 4257 14390 4197 14421 4109 14468 4025 14521 3934 14563 3886 14585 3842 14619 3794 14644 3770 14657 3746 14668 3721 14680 3660 14709 3598 14736 3544 14779 3532 14789 3514 14792 3499 14798 3391 14845 3285 14899 3176 14945 3081 14986 2987 15027 2892 15068 2797 15108 2702 15147 2606 15186 2490 15233 2371 15273 2254 15318 2192 15342 2125 15355 2065 15382 2005 15409 1943 15423 1880 15436 1863 15440 1846 15444 1826 15436 1897 15375 1974 15326 2053 15279 2133 15231 2209 15177 2291 15133 2381 15084 2462 15022 2549 14968 2616 14927 2684 14884 2747 14835 2788 14803 2836 14780 2879 14748 2940 14703 3005 14664 3068 14623 3135 14578 3205 14536 3270 14487 3345 14430 3427 14384 3501 14326 3575 14268 3657 14221 3732 14164 3795 14116 3861 14072 3925 14025 4000 13969 4075 13912 4152 13859 4190 13834 4222 13800 4261 13777 4304 13752 4339 13717 4378 13689 4416 13660 4460 13636 4493 13599 4517 13571 4552 13556 4580 13532 4650 13472 4727 13420 4799 13363 4858 13316 4912 13262 4973 13218 5012 13190 5047 13156 5085 13125 5118 13099 5154 13073 5183 13041 5213 13009 5251 12983 5285 12954 5323 12922 5361 12889 5398 12856 5429 12829 5458 12799 5489 12776 5528 12746 5559 12708 5598 12679 5640 12647 5671 12603 5714 12573 5743 12553 5766 12525 5791 12501 5888 12410 5981 12316 6074 12221 6131 12163 6186 12104 6242 12046 6305 11981 6366 11913 6428 11848 6480 11793 6528 11734 6578 11677 6620 11628 6664 11581 6706 11531 6745 11482 6781 11430 6822 11383 6880 11316 6930 11243 6986 11173 7022 11128 7055 11079 7089 11031 7128 10976 7169 10923 7205 10866 7266 10767 7332 10670 7392 10570 7463 10449 7533 10329 7599 10205 7674 10062 7742 9915 7806 9766 7832 9706 7851 9643 7877 9584 7938 9441 7978 9293 8022 9145 8050 9054 8064 8961 8088 8870 8136 8693 8144 8512 8168 8332 8185 8203 8198 8075 8196 7945 8194 7735 8162 7528 8106 7326 8069 7197 8006 7077 7928 6967 7866 6880 7796 6799 7712 6733 7676 6706 7638 6680 7596 6659 7538 6631 7487 6591 7425 6571 7414 6568 7403 6559 7389 6555 7229 6513 7067 6487 6900 6490 6787 6492 6672 6487 6561 6505 6422 6527 6280 6530 6144 6561 6055 6581 5966 6594 5877 6612 5872 6613 5866 6617 5861 6616 5840 6611 5817 6652 5806 6624 5795 6597 5826 6571 5847 6555 5907 6509 5976 6479 6047 6453 6197 6397 6351 6363 6507 6331 6624 6306 6743 6294 6860 6270 7027 6235 7196 6228 7364 6210 7394 6207 7399 6197 7390 6171 7363 6095 7352 6016 7334 5938 7272 5657 7270 5373 7294 5088 7307 4936 7347 4790 7393 4647 7423 4556 7467 4468 7515 4385 7566 4295 7626 4210 7695 4131 7749 4070 7806 4012 7869 3961 7941 3903 8019 3852 8100 3803 8196 3745 8300 3707 8401 3662 8439 3645 8480 3637 8520 3627 8555 3619 8586 3601 8616 3584 8649 3565 8649 3549 8615 3536 8553 3514 8507 3472 8460 3431 8413 3389 8377 3336 8335 3290 8292 3243 8262 3188 8228 3137 8190 3080 8155 3019 8125 2957 8085 2875 8041 2795 8010 2710 7976 2612 7929 2517 7922 2411 7921 2402 7912 2391 7925 2385 7934 2381 7939 2392 7946 2395 7987 2419 8001 2466 8029 2500 8085 2567 8141 2632 8202 2693 8285 2774 8378 2841 8488 2883 8499 2888 8512 2889 8524 2892 8530 2894 8537 2896 8545 2887Z" fill="#243D71" fill-rule="nonzero"/><path d="M15768 12138C15796 12143 15821 12147 15845 12152 15915 12167 15971 12203 16021 12255 16178 12418 16201 12609 16152 12820 16121 12949 16055 13055 15953 13141 15861 13218 15759 13262 15640 13279 15363 13319 15086 13302 14809 13301 14735 13300 14735 13299 14735 13226 14735 13193 14737 13160 14734 13127 14731 13096 14741 13087 14773 13087 14894 13088 15016 13087 15137 13087 15259 13087 15381 13085 15502 13087 15604 13090 15694 13056 15773 12996 15809 12967 15839 12926 15863 12885 15939 12756 15963 12615 15919 12472 15891 12381 15840 12303 15747 12255 15686 12223 15627 12192 15559 12175 15545 12172 15530 12168 15515 12168 15110 12166 14706 12158 14301 12168 14256 12169 14255 12171 14272 12212 14321 12329 14365 12449 14411 12568 14452 12674 14495 12780 14536 12887 14561 12953 14560 12957 14497 12985 14476 12995 14451 12997 14431 13009 14390 13032 14368 13011 14351 12978 14341 12957 14332 12936 14323 12914 14290 12827 14257 12740 14225 12653 14179 12529 14130 12406 14090 12280 14081 12251 14067 12224 14055 12196 14045 12173 14029 12166 14003 12166 13869 12165 13735 12162 13601 12160 13589 12159 13568 12167 13567 12148 13566 12126 13589 12131 13602 12131 13727 12129 13851 12129 13975 12128 14024 12128 14023 12127 14003 12085 13994 12068 13991 12049 13985 12030 13955 11929 13913 11832 13877 11733 13846 11648 13819 11561 13780 11478 13776 11470 13774 11457 13764 11456 13748 11454 13750 11470 13746 11479 13695 11597 13646 11716 13597 11835 13549 11951 13496 12065 13450 12183 13408 12291 13361 12399 13317 12507 13268 12628 13220 12750 13169 12870 13138 12942 13119 13020 13075 13087 13064 13102 13061 13123 13058 13142 13055 13168 13059 13195 13087 13204 13132 13220 13175 13246 13225 13243 13231 13243 13236 13243 13242 13244 13261 13248 13263 13264 13264 13279 13265 13300 13250 13300 13236 13300 13143 13300 13051 13299 12958 13301 12911 13302 12863 13299 12822 13335 12803 13352 12775 13355 12755 13327 12735 13297 12704 13301 12673 13298 12660 13297 12641 13306 12638 13282 12635 13261 12643 13246 12665 13243 12701 13240 12693 13222 12680 13201 12617 13106 12558 13009 12491 12916 12454 12865 12417 12813 12380 12762 12345 12714 12311 12664 12277 12615 12228 12545 12186 12469 12121 12414 12061 12363 11988 12340 11907 12342 11793 12344 11793 12342 11793 12453 11793 12662 11792 12870 11792 13079 11792 13202 11821 13206 11936 13241 11961 13248 11988 13246 12014 13251 12025 13253 12039 13259 12038 13275 12036 13289 12026 13297 12013 13299 12002 13301 11991 13301 11980 13301 11770 13301 11560 13301 11350 13300 11347 13300 11344 13300 11342 13300 11322 13302 11305 13298 11305 13273 11305 13250 11323 13250 11340 13248 11380 13244 11419 13243 11459 13226 11535 13195 11548 13131 11554 13067 11561 12986 11557 12904 11558 12823 11560 12620 11563 12417 11557 12214 11556 12180 11549 12166 11511 12166 11311 12168 11110 12167 10910 12167 10864 12167 10865 12168 10879 12211 10904 12289 10937 12365 10966 12442 11014 12568 11063 12694 11110 12821 11124 12857 11142 12892 11155 12930 11159 12943 11163 12954 11146 12961 11098 12980 11050 12999 11002 13018 10980 13027 10968 13015 10963 12995 10934 12891 10888 12792 10851 12691 10805 12561 10752 12434 10705 12304 10692 12269 10676 12234 10663 12199 10655 12175 10643 12166 10616 12166 10480 12167 10345 12166 10210 12165 10196 12165 10174 12174 10173 12152 10172 12129 10194 12131 10210 12131 10336 12131 10462 12129 10587 12130 10620 12130 10627 12124 10617 12090 10587 11983 10539 11883 10501 11779 10475 11709 10461 11634 10427 11567 10408 11530 10398 11489 10374 11453 10330 11498 10326 11559 10300 11608 10261 11683 10241 11765 10201 11840 10178 11883 10167 11932 10148 11978 10099 12091 10054 12206 10006 12320 9957 12436 9909 12553 9861 12670 9814 12780 9767 12890 9723 13001 9705 13047 9688 13091 9677 13139 9667 13180 9678 13202 9721 13210 9755 13217 9789 13230 9823 13241 9832 13244 9840 13249 9849 13252 9866 13258 9873 13271 9870 13288 9866 13305 9850 13300 9839 13300 9726 13301 9612 13305 9499 13300 9480 13299 9461 13295 9445 13312 9439 13319 9427 13324 9419 13318 9376 13292 9328 13298 9282 13294 9263 13292 9247 13287 9247 13267 9247 13247 9264 13241 9282 13240 9297 13239 9315 13239 9320 13221 9324 13202 9302 13202 9292 13192 9227 13125 9163 13056 9098 12989 9043 12932 8989 12873 8932 12817 8869 12755 8812 12687 8752 12623 8719 12588 8681 12556 8652 12518 8622 12477 8581 12447 8550 12408 8509 12357 8461 12313 8415 12267 8379 12231 8342 12196 8306 12159 8285 12139 8287 12121 8309 12100 8347 12064 8383 12026 8419 11988 8441 11964 8468 11944 8492 11923 8552 11871 8608 11813 8664 11757 8730 11692 8800 11630 8863 11562 8890 11533 8918 11503 8949 11476 8987 11443 9007 11394 9029 11349 9039 11329 9032 11308 9008 11293 8978 11275 8946 11273 8913 11273 8892 11273 8876 11266 8876 11244 8875 11222 8889 11214 8911 11214 9106 11215 9301 11214 9495 11214 9510 11214 9525 11213 9524 11234 9523 11252 9524 11269 9498 11272 9425 11281 9362 11313 9300 11351 9263 11373 9236 11405 9203 11431 9157 11465 9114 11506 9071 11544 9014 11594 8964 11651 8905 11699 8866 11730 8829 11765 8794 11800 8730 11862 8662 11921 8603 11988 8592 12000 8580 12011 8569 12022 8519 12074 8521 12089 8574 12137 8651 12208 8718 12288 8789 12365 8811 12389 8834 12412 8858 12434 8959 12530 9048 12637 9144 12737 9197 12794 9250 12853 9307 12907 9356 12954 9403 13005 9450 13055 9467 13073 9476 13078 9490 13049 9529 12975 9554 12894 9588 12817 9626 12731 9660 12642 9699 12556 9733 12481 9753 12400 9796 12328 9804 12315 9807 12298 9813 12282 9845 12200 9881 12119 9914 12037 9962 11919 10012 11801 10061 11683 10105 11577 10150 11470 10196 11365 10233 11279 10266 11192 10306 11108 10313 11094 10318 11085 10335 11083 10426 11072 10438 11079 10469 11163 10517 11287 10564 11412 10607 11538 10633 11613 10661 11687 10689 11760 10714 11824 10732 11890 10762 11951 10784 11996 10800 12044 10822 12089 10836 12117 10854 12131 10889 12131 11274 12130 11660 12131 12045 12130 12134 12130 12221 12109 12299 12070 12401 12019 12442 11923 12449 11812 12455 11725 12447 11640 12411 11561 12394 11522 12361 11491 12326 11464 12248 11404 12157 11391 12062 11388 11910 11381 11759 11386 11607 11389 11565 11390 11553 11376 11557 11337 11560 11309 11561 11279 11559 11250 11557 11221 11567 11213 11596 11213 11770 11214 11944 11213 12118 11214 12153 11214 12187 11217 12221 11221 12328 11232 12419 11278 12502 11344 12576 11403 12626 11477 12665 11564 12717 11680 12716 11794 12682 11909 12657 11996 12609 12075 12543 12137 12476 12199 12399 12251 12306 12269 12295 12271 12276 12270 12275 12284 12274 12297 12288 12308 12301 12312 12361 12326 12381 12382 12415 12423 12459 12477 12495 12538 12538 12594 12566 12630 12590 12669 12618 12706 12691 12807 12762 12911 12836 13011 12848 13028 12847 13066 12878 13059 12900 13054 12896 13022 12905 13003 12955 12885 13007 12768 13052 12648 13082 12568 13117 12491 13150 12413 13198 12296 13245 12179 13295 12062 13341 11953 13385 11843 13432 11734 13481 11618 13527 11499 13577 11383 13617 11292 13653 11199 13692 11108 13700 11090 13710 11082 13730 11083 13741 11084 13752 11085 13763 11084 13813 11076 13834 11095 13853 11145 13901 11269 13947 11393 13996 11516 14043 11635 14088 11755 14136 11874 14168 11952 14192 12034 14232 12109 14241 12126 14250 12131 14267 12131 14673 12130 15079 12135 15485 12128 15603 12126 15709 12070 15777 11965 15786 11951 15791 11935 15795 11919 15820 11815 15823 11711 15790 11608 15766 11535 15711 11487 15641 11454 15513 11393 15376 11405 15240 11404 15210 11404 15218 11427 15218 11443 15217 11617 15214 11791 15216 11965 15216 12006 15203 12014 15166 12012 15117 12009 15067 12009 15017 12011 14989 12011 14979 12000 14978 11972 14972 11838 14976 11704 14979 11570 14981 11514 14982 11458 14972 11401 14960 11336 14913 11309 14858 11292 14829 11284 14798 11283 14768 11281 14745 11280 14732 11276 14734 11249 14735 11222 14743 11213 14770 11214 15023 11214 15276 11214 15529 11214 15581 11214 15633 11218 15685 11229 15760 11244 15823 11282 15884 11326 15980 11395 16018 11490 16039 11602 16062 11723 16036 11834 15989 11939 15958 12008 15904 12071 15824 12099 15804 12106 15780 12109 15768 12138Z" fill="#274075" fill-rule="nonzero"/><path d="M9629 2760C9669 2725 9717 2725 9765 2722 9955 2712 10146 2708 10335 2688 10544 2667 10753 2658 10962 2638 11191 2616 11420 2599 11650 2592 11767 2588 11881 2590 11990 2646 12055 2680 12126 2702 12195 2729 12355 2792 12515 2858 12676 2919 12778 2959 12879 3001 12981 3041 13090 3085 13199 3128 13308 3170 13404 3207 13500 3246 13596 3287 13649 3309 13702 3328 13756 3348 13766 3352 13779 3355 13777 3369 13776 3384 13761 3378 13751 3379 13680 3388 13608 3392 13538 3405 13356 3438 13172 3451 12989 3479 12931 3488 12873 3498 12815 3506 12797 3509 12793 3516 12790 3532 12776 3625 12760 3717 12746 3810 12743 3833 12729 3841 12709 3838 12594 3818 12477 3811 12363 3786 12258 3762 12149 3761 12043 3740 11896 3710 11745 3703 11598 3673 11471 3647 11342 3641 11216 3614 11071 3583 10923 3577 10779 3548 10702 3532 10625 3522 10548 3513 10504 3508 10506 3478 10510 3449 10519 3372 10528 3296 10540 3219 10545 3187 10535 3170 10506 3160 10377 3115 10258 3048 10132 2995 10045 2958 9959 2915 9872 2875 9792 2837 9711 2799 9629 2760Z" fill="#CC2429" fill-rule="nonzero"/><path d="M13799 13610C13034 13610 12269 13610 11504 13610 10269 13610 9034 13609 7799 13609 7743 13609 7724 13583 7739 13529 7744 13511 7758 13514 7769 13513 7817 13511 7865 13509 7913 13509 8525 13510 9137 13512 9749 13512 11282 13512 12816 13512 14349 13511 15564 13511 16780 13508 17995 13508 18586 13508 19178 13513 19769 13515 19778 13515 19788 13516 19798 13516 19851 13517 19868 13543 19849 13594 19845 13605 19839 13609 19828 13610 19816 13611 19804 13610 19791 13610 17794 13610 15797 13610 13799 13610L13799 13610Z" fill="#CF3B35" fill-rule="nonzero"/><path d="M16553 11927C16553 11768 16552 11609 16554 11450 16554 11394 16526 11351 16498 11308 16484 11284 16452 11285 16427 11281 16396 11276 16364 11273 16332 11272 16308 11271 16307 11256 16307 11238 16306 11217 16318 11214 16336 11214 16550 11214 16764 11214 16978 11214 16992 11214 17008 11213 17005 11234 17003 11251 17008 11272 16980 11273 16948 11274 16916 11276 16885 11281 16825 11290 16784 11318 16780 11384 16762 11729 16738 12076 16798 12420 16810 12493 16836 12564 16874 12627 16895 12661 16925 12693 16968 12713 17128 12786 17292 12786 17456 12744 17529 12725 17589 12678 17634 12611 17723 12480 17723 12332 17728 12184 17730 12146 17739 12134 17777 12135 18035 12136 18293 12136 18552 12135 18580 12135 18589 12143 18589 12172 18588 12415 18588 12658 18589 12901 18589 12928 18581 12937 18554 12937 18420 12936 18286 12936 18152 12936 18138 12936 18119 12942 18118 12917 18117 12892 18136 12894 18152 12892 18188 12888 18224 12886 18259 12880 18307 12872 18330 12840 18339 12794 18358 12704 18349 12612 18350 12522 18352 12417 18349 12312 18351 12207 18351 12174 18341 12165 18308 12166 18205 12169 18101 12169 17997 12167 17963 12166 17955 12179 17956 12209 17958 12323 17942 12434 17914 12544 17892 12627 17846 12696 17793 12762 17764 12799 17726 12826 17694 12859 17688 12865 17679 12871 17670 12874 17438 12970 17198 12989 16955 12929 16853 12903 16771 12840 16699 12763 16671 12734 16654 12701 16635 12666 16562 12531 16561 12383 16555 12237 16551 12134 16554 12030 16554 11927L16553 11927Z" fill="#294175" fill-rule="nonzero"/><path d="M9528 14192C9528 14250 9528 14309 9528 14368 9525 14625 9520 14881 9520 15138 9520 15184 9499 15199 9464 15205 9442 15209 9419 15208 9398 15204 9371 15198 9356 15184 9357 15150 9360 14761 9362 14372 9363 13983 9363 13947 9372 13930 9410 13935 9426 13937 9444 13939 9459 13935 9540 13913 9572 13968 9606 14023 9641 14080 9680 14136 9716 14192 9724 14205 9730 14219 9737 14232 9794 14334 9859 14431 9921 14530 9988 14637 10054 14744 10123 14850 10148 14887 10172 14925 10192 14964 10196 14972 10200 14986 10211 14983 10226 14980 10220 14965 10219 14955 10199 14813 10202 14670 10202 14526 10203 14347 10205 14167 10205 13988 10205 13949 10216 13934 10257 13935 10366 13937 10366 13935 10366 14045 10366 14414 10366 14782 10366 15151 10366 15203 10366 15203 10312 15200 10275 15197 10238 15195 10201 15193 10188 15192 10175 15192 10168 15179 10149 15138 10118 15105 10093 15068 10040 14990 10001 14902 9944 14827 9868 14725 9806 14615 9739 14508 9689 14427 9640 14346 9591 14265 9576 14240 9559 14213 9539 14189 9536 14190 9532 14191 9528 14192Z" fill="#294177" fill-rule="nonzero"/><path d="M19562 11215C19658 11215 19753 11215 19848 11215 19862 11215 19882 11209 19881 11234 19881 11253 19881 11273 19852 11274 19765 11277 19692 11320 19623 11366 19587 11390 19555 11426 19523 11460 19468 11518 19408 11572 19348 11626 19259 11709 19168 11791 19083 11879 19031 11932 18979 11989 18919 12035 18881 12063 18884 12094 18926 12131 18968 12169 19004 12213 19043 12253 19104 12315 19163 12378 19222 12441 19258 12480 19293 12520 19330 12557 19362 12588 19393 12621 19422 12653 19484 12721 19550 12784 19611 12854 19640 12888 19673 12920 19706 12951 19733 12977 19755 13006 19780 13032 19815 13070 19861 13096 19891 13139 19908 13163 19908 13179 19893 13205 19871 13246 19831 13269 19806 13306 19790 13330 19771 13323 19755 13304 19686 13220 19608 13145 19533 13066 19479 13011 19429 12953 19376 12897 19317 12836 19257 12777 19198 12715 19121 12634 19045 12551 18967 12471 18901 12403 18837 12334 18771 12267 18735 12231 18692 12200 18666 12153 18655 12134 18655 12120 18668 12105 18710 12059 18757 12018 18800 11973 18836 11936 18876 11903 18912 11866 18940 11837 18965 11802 19001 11779 19034 11758 19057 11723 19085 11696 19155 11626 19224 11555 19294 11484 19331 11447 19371 11410 19388 11358 19400 11320 19388 11296 19349 11287 19324 11280 19297 11275 19272 11274 19244 11274 19241 11261 19240 11238 19239 11213 19254 11213 19272 11213 19369 11214 19466 11214 19562 11214L19562 11215Z" fill="#274075" fill-rule="nonzero"/><path d="M13291 14296 13291 14296C13291 14363 13291 14429 13291 14495 13291 14510 13287 14528 13312 14531 13401 14543 13487 14546 13575 14517 13679 14483 13730 14406 13743 14310 13760 14186 13689 14110 13575 14076 13489 14051 13401 14057 13313 14066 13291 14069 13291 14082 13291 14098 13291 14164 13291 14230 13291 14296ZM13150 14563C13150 14367 13150 14171 13149 13975 13149 13945 13156 13934 13188 13934 13312 13935 13436 13926 13560 13935 13685 13944 13779 14001 13851 14105 13921 14205 13909 14308 13874 14411 13854 14468 13814 14519 13756 14545 13718 14562 13686 14587 13652 14608 13635 14618 13638 14625 13651 14635 13707 14673 13745 14723 13781 14782 13836 14874 13888 14970 13949 15059 13974 15096 13986 15142 14015 15177 14020 15182 14020 15188 14016 15195 14010 15204 14001 15205 13994 15201 13970 15190 13945 15191 13921 15188 13851 15181 13816 15129 13788 15078 13748 15001 13699 14930 13651 14857 13639 14839 13631 14819 13620 14799 13561 14689 13465 14653 13345 14662 13315 14665 13302 14674 13303 14707 13304 14855 13302 15003 13304 15150 13304 15190 13290 15203 13251 15202 13145 15199 13145 15200 13145 15097 13145 14919 13145 14741 13145 14563L13150 14563Z" fill="#294175" fill-rule="nonzero"/><path d="M8903 14374C8903 14241 8904 14109 8903 13976 8902 13947 8907 13935 8941 13935 9055 13936 9055 13934 9055 14050 9056 14274 9056 14497 9058 14721 9060 14844 9023 14954 8957 15056 8917 15119 8862 15162 8787 15188 8676 15227 8565 15228 8454 15208 8335 15186 8240 15127 8180 15013 8138 14935 8128 14853 8125 14771 8114 14509 8117 14246 8123 13984 8124 13944 8138 13933 8176 13935 8276 13938 8279 13936 8279 14036 8280 14237 8276 14437 8275 14637 8275 14705 8280 14772 8289 14839 8305 14954 8368 15024 8478 15067 8608 15117 8715 15074 8815 15001 8865 14964 8885 14902 8892 14841 8912 14686 8901 14530 8903 14374Z" fill="#294177" fill-rule="nonzero"/><path d="M12242 14564C12242 14367 12243 14171 12241 13975 12241 13944 12252 13935 12282 13935 12471 13936 12660 13936 12849 13935 12878 13935 12890 13942 12889 13975 12885 14070 12887 14070 12792 14071 12676 14073 12560 14075 12444 14074 12409 14074 12401 14085 12402 14119 12404 14229 12405 14340 12403 14450 12402 14485 12415 14491 12446 14491 12567 14490 12689 14493 12810 14493 12841 14493 12851 14501 12851 14532 12851 14626 12852 14627 12758 14627 12655 14627 12551 14626 12448 14623 12412 14622 12397 14632 12399 14672 12402 14788 12402 14904 12400 15020 12399 15053 12407 15064 12443 15064 12585 15062 12727 15065 12869 15064 12900 15063 12910 15073 12910 15103 12912 15202 12913 15202 12814 15202 12643 15201 12472 15201 12301 15200 12243 15200 12242 15198 12242 15143 12242 14950 12242 14757 12242 14564L12242 14564Z" fill="#2D4378" fill-rule="nonzero"/><path d="M11530 15008C11564 14976 11562 14934 11570 14898 11595 14782 11641 14673 11679 14562 11720 14440 11766 14320 11813 14200 11845 14119 11868 14034 11905 13954 11912 13941 11919 13935 11933 13935 11968 13936 12002 13937 12037 13935 12060 13934 12064 13944 12062 13965 12057 14015 12031 14058 12013 14103 11972 14206 11937 14311 11905 14417 11867 14542 11820 14665 11769 14785 11743 14847 11727 14912 11697 14972 11668 15031 11650 15094 11632 15156 11628 15170 11620 15181 11609 15189 11591 15202 11475 15205 11455 15196 11442 15189 11441 15177 11437 15165 11409 15086 11388 15005 11353 14929 11314 14844 11292 14754 11254 14668 11208 14564 11179 14453 11137 14347 11099 14252 11074 14153 11035 14059 11031 14050 11028 14041 11027 14031 11023 14001 10994 13955 11014 13943 11051 13922 11102 13936 11147 13937 11162 13938 11161 13955 11166 13966 11207 14060 11228 14161 11271 14254 11287 14290 11294 14331 11307 14368 11361 14523 11415 14678 11471 14832 11491 14889 11500 14951 11530 15008Z" fill="#294175" fill-rule="nonzero"/><path d="M14457 15221C14358 15226 14257 15196 14155 15165 14137 15160 14131 15150 14132 15132 14133 15092 14134 15052 14134 15012 14133 14983 14144 14978 14169 14992 14238 15031 14314 15053 14393 15067 14473 15082 14552 15088 14632 15061 14688 15043 14729 14998 14738 14939 14754 14843 14715 14775 14636 14721 14567 14673 14491 14642 14417 14605 14335 14563 14248 14521 14193 14441 14107 14316 14107 14200 14195 14075 14220 14039 14258 14011 14300 13988 14455 13903 14616 13908 14781 13938 14839 13948 14841 13953 14843 14014 14844 14042 14848 14069 14851 14096 14856 14130 14842 14139 14815 14120 14732 14061 14637 14055 14540 14055 14465 14056 14399 14076 14344 14127 14284 14182 14289 14326 14358 14378 14436 14437 14521 14483 14604 14533 14658 14565 14711 14598 14764 14631 14907 14717 14923 14854 14886 14988 14858 15087 14791 15149 14692 15183 14618 15208 14544 15223 14457 15221Z" fill="#294177" fill-rule="nonzero"/><path d="M17848 13923C17900 13924 17952 13925 18004 13931 18058 13938 18076 13976 18086 14016 18094 14046 18088 14079 18085 14111 18083 14129 18072 14138 18054 14124 17955 14050 17842 14048 17727 14065 17655 14075 17592 14106 17553 14173 17510 14247 17535 14329 17604 14382 17669 14432 17745 14461 17815 14502 17914 14561 18012 14623 18087 14713 18161 14803 18153 14973 18086 15065 18032 15141 17962 15173 17877 15196 17761 15227 17645 15225 17530 15206 17484 15198 17437 15185 17394 15163 17377 15153 17370 15144 17371 15125 17372 15088 17373 15051 17371 15013 17370 14983 17383 14982 17407 14991 17457 15011 17502 15043 17556 15055 17595 15064 17632 15079 17670 15088 17754 15107 17831 15075 17899 15039 17985 14995 18001 14902 17961 14820 17947 14792 17921 14768 17897 14747 17829 14688 17752 14642 17674 14599 17609 14563 17544 14526 17479 14492 17447 14475 17428 14450 17416 14420 17398 14377 17380 14333 17374 14287 17362 14193 17392 14113 17462 14045 17544 13964 17643 13931 17753 13923 17784 13921 17816 13923 17848 13923Z" fill="#294175" fill-rule="nonzero"/><path d="M16535 14816C16535 14706 16530 14595 16536 14485 16545 14315 16539 14146 16542 13977 16542 13948 16549 13938 16579 13938 16767 13939 16954 13938 17142 13937 17173 13936 17182 13946 17182 13977 17182 14066 17183 14068 17095 14069 16973 14071 16852 14069 16731 14067 16696 14066 16686 14077 16687 14111 16688 14226 16688 14341 16685 14455 16685 14485 16693 14493 16722 14493 16846 14492 16970 14495 17095 14494 17128 14493 17137 14504 17137 14536 17138 14624 17140 14624 17053 14624 16944 14624 16835 14625 16726 14624 16696 14624 16685 14632 16686 14664 16688 14785 16689 14907 16687 15028 16687 15059 16698 15064 16726 15064 16872 15063 17018 15065 17165 15063 17196 15063 17205 15073 17205 15103 17205 15194 17206 15194 17113 15194 16937 15194 16760 15193 16583 15195 16544 15195 16528 15188 16529 15143 16533 15034 16530 14925 16530 14816 16532 14816 16533 14816 16535 14816Z" fill="#274075" fill-rule="nonzero"/><path d="M10936 7016C10931 6978 10961 6955 10979 6930 11022 6870 11061 6809 11103 6749 11139 6698 11164 6640 11202 6591 11216 6571 11224 6547 11234 6524 11255 6479 11276 6433 11295 6387 11299 6379 11300 6369 11310 6371 11319 6373 11319 6383 11320 6392 11320 6394 11320 6397 11320 6400 11313 6549 11352 6693 11391 6833 11413 6909 11430 6990 11481 7056 11488 7066 11487 7079 11481 7091 11440 7166 11400 7241 11358 7316 11319 7385 11276 7453 11236 7521 11194 7593 11154 7665 11113 7737 11108 7746 11105 7760 11092 7759 11077 7758 11082 7743 11080 7733 11039 7590 11022 7442 10988 7298 10966 7204 10954 7110 10936 7016Z" fill="#273F74" fill-rule="nonzero"/><path d="M15995 14638C15995 14809 15995 14980 15995 15151 15995 15203 15994 15204 15945 15201 15838 15195 15838 15195 15838 15087 15837 14764 15836 14442 15837 14119 15837 14081 15827 14069 15788 14070 15700 14072 15611 14068 15523 14068 15499 14068 15489 14062 15489 14036 15489 13935 15488 13935 15589 13935 15830 13935 16070 13936 16310 13935 16340 13934 16351 13941 16351 13973 16350 14070 16351 14070 16253 14072 16181 14073 16110 14076 16038 14075 16002 14074 15995 14087 15995 14120 15997 14292 15996 14465 15996 14638L15995 14638Z" fill="#294177" fill-rule="nonzero"/><path d="M8224 12534C8224 12654 8224 12774 8225 12894 8225 12923 8218 12935 8186 12934 8053 12932 7921 12933 7788 12933 7780 12933 7772 12933 7763 12932 7752 12931 7742 12929 7740 12914 7739 12897 7752 12897 7762 12895 7793 12892 7825 12889 7857 12887 7944 12881 7987 12831 7989 12746 7995 12564 7994 12382 7993 12200 7992 12172 7980 12167 7955 12167 7821 12168 7687 12167 7553 12167 7543 12167 7534 12167 7524 12167 7514 12166 7503 12166 7502 12154 7501 12140 7513 12140 7522 12140 7528 12139 7533 12140 7539 12140 7754 12138 7969 12136 8185 12133 8218 12132 8228 12141 8227 12174 8225 12294 8226 12414 8226 12534L8224 12534Z" fill="#2C4276" fill-rule="nonzero"/><path d="M10677 14567C10677 14370 10678 14172 10676 13975 10676 13945 10683 13935 10715 13935 10829 13936 10829 13935 10829 14049 10828 14418 10828 14786 10829 15154 10829 15194 10817 15204 10778 15202 10677 15195 10677 15196 10677 15093L10677 14567 10677 14567Z" fill="#2D4378" fill-rule="nonzero"/><path d="M7995 11610C7995 11492 7997 11373 7994 11255 7994 11221 8005 11212 8037 11214 8089 11216 8142 11215 8194 11214 8217 11214 8229 11219 8229 11246 8227 11491 8226 11737 8226 11982 8226 12006 8218 12014 8195 12013 8139 12012 8084 12011 8029 12013 8000 12013 7992 12003 7992 11974 7993 11853 7993 11732 7993 11610 7993 11610 7994 11610 7995 11610Z" fill="#273F74" fill-rule="nonzero"/><path d="M15157 14567C15157 14372 15158 14178 15156 13983 15156 13951 15165 13941 15198 13941 15298 13941 15298 13939 15298 14038 15298 14408 15297 14778 15298 15148 15298 15181 15290 15193 15254 15192 15155 15189 15155 15191 15155 15093 15156 14918 15155 14742 15155 14567L15157 14567Z" fill="#2D4378" fill-rule="nonzero"/><path d="M18589 11613C18589 11732 18588 11850 18590 11969 18590 11998 18584 12011 18551 12009 18499 12006 18446 12007 18394 12008 18368 12008 18358 11999 18358 11972 18359 11732 18359 11492 18358 11252 18358 11229 18365 11218 18387 11218 18447 11218 18506 11217 18565 11216 18596 11215 18589 11236 18589 11253 18590 11373 18589 11493 18589 11613L18589 11613Z" fill="#2C4276" fill-rule="nonzero"/><path d="M17730 11611C17730 11494 17731 11377 17729 11259 17728 11224 17741 11216 17771 11217 17816 11219 17860 11219 17904 11218 17933 11217 17946 11226 17946 11258 17945 11493 17945 11727 17945 11962 17945 11994 17933 12006 17901 12005 17858 12003 17815 12004 17772 12005 17741 12007 17729 11997 17729 11963 17731 11846 17730 11728 17730 11611L17730 11611Z" fill="#2D4378" fill-rule="nonzero"/><path d="M18381 14565C18381 14371 18382 14176 18380 13982 18380 13950 18389 13942 18420 13942 18519 13944 18519 13942 18519 14042 18519 14410 18518 14779 18519 15147 18519 15178 18512 15190 18478 15190 18380 15190 18380 15191 18380 15095 18380 14918 18380 14741 18380 14565L18381 14565Z" fill="#274075" fill-rule="nonzero"/><path d="M10598 10632C10596 10727 10591 10828 10659 10918 10688 10957 10718 10970 10762 10965 10784 10963 10800 10955 10817 10942 10858 10912 10876 10868 10887 10822 10915 10714 10905 10606 10890 10498 10880 10431 10862 10369 10795 10331 10771 10317 10749 10315 10731 10323 10661 10354 10614 10405 10608 10485 10605 10532 10602 10578 10598 10632ZM10509 10685C10505 10573 10509 10483 10544 10397 10594 10276 10722 10211 10841 10259 10898 10281 10935 10333 10959 10393 11008 10513 11007 10637 10987 10759 10972 10850 10952 10944 10861 11003 10800 11043 10639 11048 10572 10952 10510 10862 10518 10763 10509 10685Z" fill="#E6352C" fill-rule="nonzero"/><path d="M10327 10646C10324 10575 10324 10509 10310 10444 10300 10398 10277 10362 10233 10346 10208 10338 10185 10316 10157 10325 10091 10345 10050 10387 10036 10458 10016 10565 10011 10671 10027 10778 10036 10837 10035 10900 10100 10938 10179 10984 10254 10964 10294 10881 10331 10804 10318 10721 10327 10646ZM9919 10661C9930 10567 9942 10472 9975 10383 10016 10271 10172 10207 10276 10265 10340 10300 10375 10364 10392 10435 10427 10587 10425 10738 10376 10887 10340 10998 10167 11074 10067 11015 10008 10981 9965 10923 9952 10852 9940 10789 9916 10727 9919 10661Z" fill="#E6352C" fill-rule="nonzero"/><path d="M9603 11018C9541 11018 9479 11017 9417 11018 9384 11019 9372 11004 9374 10974 9379 10900 9394 10832 9457 10781 9504 10742 9549 10702 9599 10667 9665 10621 9703 10556 9715 10477 9728 10393 9652 10318 9566 10332 9513 10341 9465 10364 9421 10395 9415 10399 9411 10405 9404 10403 9395 10401 9397 10392 9397 10386 9397 10343 9405 10312 9451 10287 9505 10257 9558 10240 9618 10244 9686 10248 9733 10281 9772 10339 9805 10389 9816 10440 9806 10495 9793 10565 9758 10625 9705 10674 9659 10716 9605 10744 9560 10785 9523 10819 9484 10851 9469 10903 9459 10938 9470 10952 9506 10952 9599 10951 9693 10951 9787 10950 9812 10950 9830 10958 9827 10989 9825 11010 9817 11020 9794 11020 9730 11019 9667 11019 9603 11019 9603 11019 9603 11019 9603 11018Z" fill="#E6352C" fill-rule="nonzero"/><path d="M11325 10259C11384 10259 11444 10258 11503 10260 11521 10260 11547 10248 11556 10269 11566 10294 11561 10324 11546 10344 11493 10418 11460 10502 11424 10584 11390 10659 11358 10735 11330 10812 11311 10867 11306 10928 11293 10985 11290 10999 11297 11021 11276 11023 11250 11025 11223 11031 11199 11018 11184 11010 11189 10994 11193 10984 11221 10916 11224 10841 11254 10775 11288 10700 11307 10621 11351 10550 11383 10497 11403 10436 11432 10381 11449 10347 11431 10347 11407 10347 11314 10347 11222 10344 11129 10347 11086 10349 11089 10327 11086 10297 11084 10261 11101 10257 11130 10258 11195 10259 11260 10258 11325 10258L11325 10259Z" fill="#E6352C" fill-rule="nonzero"/><path d="M17495 10836C17559 10828 17617 10907 17618 10963 17620 11027 17548 11102 17490 11103 17427 11104 17360 11020 17363 10957 17366 10901 17420 10829 17495 10836Z" fill="#294177" fill-rule="nonzero"/><path d="M17162 10961C17162 11035 17106 11102 17038 11103 16979 11104 16916 11028 16916 10957 16916 10883 16965 10835 17041 10836 17118 10837 17163 10883 17162 10961Z" fill="#294177" fill-rule="nonzero"/><path d="M8758 13823C8700 13821 8653 13784 8657 13743 8661 13699 8719 13643 8758 13645 8800 13647 8843 13695 8840 13738 8837 13787 8801 13825 8758 13823Z" fill="#304479" fill-rule="nonzero"/><path d="M15144 13730C15143 13692 15189 13647 15228 13646 15267 13646 15319 13696 15319 13733 15320 13781 15275 13823 15222 13826 15172 13828 15146 13796 15144 13730Z" fill="#304479" fill-rule="nonzero"/><path d="M10760 13825C10712 13826 10669 13784 10668 13735 10667 13691 10714 13650 10766 13650 10801 13650 10852 13698 10852 13732 10853 13775 10804 13824 10760 13825Z" fill="#2C4276" fill-rule="nonzero"/><path d="M8431 13824C8366 13823 8333 13791 8334 13726 8334 13691 8388 13646 8428 13646 8467 13646 8509 13693 8508 13734 8507 13784 8473 13824 8431 13824Z" fill="#2D4378" fill-rule="nonzero"/><path d="M18498 13812C18496 13814 18493 13815 18491 13817 18465 13817 18440 13818 18414 13818 18383 13806 18371 13774 18361 13749 18346 13712 18375 13687 18406 13668 18419 13665 18438 13676 18441 13652 18452 13645 18463 13646 18474 13653 18480 13675 18500 13671 18515 13676 18532 13686 18539 13701 18535 13720 18530 13729 18532 13738 18533 13748 18535 13768 18528 13785 18516 13801 18508 13801 18501 13802 18498 13812Z" fill="#2D4378" fill-rule="nonzero"/><path d="M18414 13818C18440 13818 18465 13817 18491 13817 18465 13831 18440 13829 18414 13818Z" fill="#304479" fill-rule="nonzero"/><path d="M18441 13652C18438 13676 18419 13665 18406 13668 18410 13646 18425 13648 18441 13652Z" fill="#304479" fill-rule="nonzero"/><path d="M18515 13676C18500 13671 18480 13675 18474 13653 18493 13651 18505 13662 18515 13676Z" fill="#304479" fill-rule="nonzero"/><path d="M18533 13748C18532 13738 18530 13729 18535 13720 18543 13730 18540 13739 18533 13748Z" fill="#304479" fill-rule="nonzero"/><path d="M18498 13812C18501 13802 18508 13801 18516 13801 18515 13812 18506 13811 18498 13812Z" fill="#304479" fill-rule="nonzero"/><path d="M12441 6108C12441 6141 12443 6174 12441 6207 12439 6242 12463 6268 12471 6299 12499 6404 12548 6501 12577 6605 12581 6617 12581 6634 12589 6640 12651 6689 12689 6759 12748 6812 12828 6884 12925 6920 13018 6958 13118 6998 13228 6982 13334 6970 13360 6967 13388 6964 13410 6951 13495 6899 13594 6871 13667 6797 13703 6761 13742 6729 13770 6683 13799 6637 13819 6584 13850 6541 13905 6466 13927 6379 13942 6293 13965 6162 13964 6030 13932 5896 13891 5729 13818 5583 13705 5455 13686 5434 13658 5425 13640 5405 13570 5331 13481 5290 13387 5263 13306 5240 13221 5236 13136 5243 13075 5248 13016 5257 12957 5281 12905 5302 12861 5329 12817 5363 12770 5399 12718 5427 12678 5473 12659 5494 12653 5521 12635 5541 12566 5616 12516 5702 12495 5802 12474 5903 12424 5999 12441 6108ZM11923 6003C11926 5878 11929 5751 11957 5629 11977 5539 11999 5449 12039 5364 12060 5318 12068 5266 12093 5221 12150 5120 12217 5031 12322 4970 12398 4926 12477 4888 12558 4853 12617 4828 12680 4812 12739 4788 12836 4749 12939 4744 13040 4724 13169 4699 13298 4707 13426 4717 13500 4723 13578 4729 13647 4761 13696 4783 13741 4810 13781 4849 13844 4910 13896 4979 13952 5044 14020 5121 14092 5195 14136 5291 14163 5349 14185 5406 14204 5466 14314 5817 14299 6170 14223 6523 14199 6633 14155 6740 14094 6835 14047 6907 13991 6974 13930 7036 13900 7066 13872 7101 13840 7129 13801 7162 13765 7199 13721 7227 13688 7248 13656 7271 13623 7292 13526 7356 13419 7394 13307 7421 13212 7445 13116 7453 13022 7436 12933 7420 12840 7411 12759 7364 12745 7356 12728 7353 12713 7347 12614 7311 12527 7252 12441 7193 12369 7143 12296 7088 12240 7018 12194 6959 12155 6892 12119 6825 12052 6701 12014 6566 11974 6431 11954 6361 11940 6290 11932 6218 11924 6147 11922 6075 11923 6003Z" fill="#FCFDFE" fill-rule="nonzero"/><path d="M10899 5332C10899 6242 10148 6981 9220 6981 8293 6981 7542 6242 7542 5332 7542 4421 8295 3635 9220 3683 10148 3731 10899 4421 10899 5332Z" fill="#FEFEFE" fill-rule="nonzero"/><path d="M10313 5273C10313 5790 9888 6209 9363 6209 8838 6209 8413 5790 8413 5273 8413 4755 8838 4336 9363 4336 9888 4336 10313 4755 10313 5273Z" fill="#243D71" fill-rule="nonzero"/><path d="M13223 6891C13378 6881 13527 6855 13641 6732 13682 6688 13732 6651 13763 6598 13772 6583 13778 6565 13788 6551 13848 6459 13881 6359 13893 6250 13896 6225 13895 6198 13896 6172 13908 5961 13878 5761 13741 5591 13706 5547 13661 5512 13623 5471 13572 5416 13510 5382 13440 5365 13343 5340 13247 5322 13146 5338 13074 5349 12999 5357 12936 5393 12841 5445 12767 5525 12699 5609 12645 5675 12609 5754 12589 5833 12537 6037 12519 6245 12610 6445 12648 6529 12689 6612 12756 6679 12782 6704 12814 6721 12835 6748 12863 6786 12904 6812 12941 6828 13029 6865 13122 6901 13223 6891ZM12441 6108C12424 5999 12474 5903 12495 5802 12516 5702 12566 5616 12635 5541 12653 5521 12659 5494 12678 5473 12718 5427 12770 5399 12817 5363 12861 5329 12905 5302 12957 5281 13016 5257 13075 5248 13136 5243 13221 5236 13306 5240 13387 5263 13481 5290 13570 5331 13640 5405 13658 5425 13686 5434 13705 5455 13818 5583 13891 5729 13932 5896 13964 6030 13965 6162 13942 6293 13927 6379 13905 6466 13850 6541 13819 6584 13799 6637 13770 6683 13742 6729 13703 6761 13667 6797 13594 6871 13495 6899 13410 6951 13388 6964 13360 6967 13334 6970 13228 6982 13118 6998 13018 6958 12925 6920 12828 6884 12748 6812 12689 6759 12651 6689 12589 6640 12585 6635 12581 6617 12577 6605 12548 6501 12499 6404 12471 6299 12463 6268 12439 6242 12441 6207 12443 6174 12441 6141 12441 6108Z" fill="#304479" fill-rule="nonzero"/><path d="M13734 6112C13734 6086 13741 6058 13732 6034 13701 5945 13689 5849 13636 5767 13613 5732 13600 5693 13569 5661 13540 5631 13505 5612 13473 5588 13407 5540 13330 5523 13254 5504 13181 5486 13120 5534 13054 5551 13032 5557 13011 5564 12992 5574 12925 5612 12877 5667 12837 5734 12789 5812 12755 5896 12731 5982 12706 6073 12709 6165 12743 6259 12773 6342 12793 6427 12846 6501 12875 6541 12902 6580 12941 6611 12988 6649 13042 6667 13096 6689 13154 6713 13211 6719 13272 6714 13311 6711 13344 6694 13379 6681 13480 6645 13562 6585 13618 6491 13631 6469 13636 6445 13649 6424 13708 6328 13714 6218 13734 6112ZM13223 6891C13122 6901 13029 6865 12941 6828 12904 6812 12863 6786 12835 6748 12814 6721 12782 6704 12756 6679 12689 6612 12648 6529 12610 6445 12519 6245 12537 6037 12589 5833 12609 5754 12645 5675 12699 5609 12767 5525 12841 5445 12936 5393 12999 5357 13074 5349 13146 5338 13247 5322 13343 5340 13440 5365 13510 5382 13572 5416 13623 5471 13661 5512 13706 5547 13741 5591 13878 5761 13908 5961 13896 6172 13895 6198 13896 6225 13893 6250 13881 6359 13848 6459 13788 6551 13778 6565 13772 6583 13763 6598 13732 6651 13682 6688 13641 6732 13527 6855 13378 6881 13223 6891Z" fill="#F8F7F8" fill-rule="nonzero"/><path d="M8923 4949C8916 5023 8993 5113 9076 5108 9160 5103 9225 5033 9228 4960 9231 4872 9158 4801 9075 4801 8994 4800 8916 4874 8923 4949ZM9904 5185C9907 5262 9894 5339 9865 5410 9843 5464 9818 5520 9775 5567 9732 5615 9694 5665 9638 5703 9578 5744 9512 5770 9444 5792 9326 5830 9206 5831 9090 5786 9028 5762 8967 5736 8914 5696 8777 5595 8700 5459 8664 5294 8650 5230 8637 5167 8651 5104 8663 5050 8681 4997 8702 4945 8737 4857 8781 4771 8852 4707 8893 4670 8942 4638 8996 4617 9070 4587 9146 4568 9222 4547 9307 4524 9387 4548 9464 4574 9568 4609 9662 4665 9738 4745 9772 4780 9803 4819 9824 4866 9869 4968 9908 5070 9904 5185Z" fill="#243D72" fill-rule="nonzero"/><path d="M13599 5917C13605 5859 13576 5815 13538 5776 13498 5735 13434 5736 13386 5764 13305 5811 13304 5882 13316 5957 13331 6044 13411 6092 13465 6078 13534 6060 13604 6005 13599 5917ZM13734 6112C13714 6218 13708 6328 13649 6424 13636 6445 13631 6469 13618 6491 13562 6585 13480 6645 13379 6681 13344 6694 13311 6711 13272 6714 13211 6719 13154 6713 13096 6689 13042 6667 12988 6649 12941 6611 12902 6580 12875 6541 12846 6501 12793 6427 12773 6342 12743 6259 12709 6165 12706 6073 12731 5982 12755 5896 12789 5812 12837 5733 12877 5667 12925 5612 12992 5574 13011 5564 13032 5557 13054 5551 13120 5534 13181 5486 13254 5504 13330 5523 13407 5540 13473 5588 13505 5612 13540 5631 13569 5661 13600 5693 13613 5732 13636 5767 13689 5849 13701 5945 13732 6034 13741 6058 13734 6086 13734 6112Z" fill="#243D72" fill-rule="nonzero"/><path d="M8923 4949C8916 4874 8994 4800 9075 4801 9158 4801 9231 4872 9228 4960 9225 5033 9160 5103 9076 5108 8993 5113 8916 5023 8923 4949Z" fill="#F8F7F8" fill-rule="nonzero"/><path d="M13599 5917C13604 6004 13534 6060 13465 6078 13411 6092 13331 6044 13316 5957 13304 5882 13305 5811 13386 5764 13434 5736 13498 5735 13538 5776 13576 5815 13605 5859 13599 5917Z" fill="#F8F7F8" fill-rule="nonzero"/><path d="M10191 5273C10191 5723 9820 6089 9363 6089 8906 6089 8535 5723 8535 5273 8535 4822 8906 4457 9363 4457 9820 4457 10191 4822 10191 5273Z" fill="#FEFEFE" fill-rule="nonzero"/><path d="M9951 5273C9951 5593 9687 5852 9363 5852 9038 5852 8775 5593 8775 5273 8775 4953 9038 4693 9363 4693 9687 4693 9951 4953 9951 5273Z" fill="#243D71" fill-rule="nonzero"/><path d="M14391 6020C14391 6815 13819 7459 13114 7459 12408 7459 11836 6815 11836 6020 11836 5225 12409 4539 13114 4581 13820 4623 14391 5225 14391 6020Z" fill="#243D71" fill-rule="nonzero"/><path d="M9328 5058C9328 5139 9261 5205 9179 5205 9096 5205 9029 5139 9029 5058 9029 4977 9096 4911 9179 4911 9261 4911 9328 4977 9328 5058Z" fill="#FEFEFE" fill-rule="nonzero"/><path d="M14283 6049C14283 6798 13729 7405 13045 7405 12361 7405 11806 6798 11806 6049 11806 5300 12438 4753 13040 4724 13725 4691 14283 5300 14283 6049Z" fill="#FEFEFE" fill-rule="nonzero"/><path d="M13791 6028C13791 6462 13484 6814 13105 6814 12727 6814 12419 6462 12419 6028 12419 5593 12727 5241 13105 5241 13484 5241 13791 5593 13791 6028Z" fill="#243D71" fill-rule="nonzero"/><path d="M13703 6028C13703 6406 13435 6713 13105 6713 12775 6713 12508 6406 12508 6028 12508 5649 12775 5343 13105 5343 13435 5343 13703 5649 13703 6028Z" fill="#FEFEFE" fill-rule="nonzero"/><path d="M13530 6028C13530 6296 13340 6514 13105 6514 12871 6514 12681 6296 12681 6028 12681 5759 12871 5541 13105 5541 13340 5541 13530 5759 13530 6028Z" fill="#243D71" fill-rule="nonzero"/><path d="M13384 5911C13384 5979 13335 6035 13276 6035 13216 6035 13168 5979 13168 5911 13168 5843 13216 5787 13276 5787 13335 5787 13384 5843 13384 5911Z" fill="#FEFEFE" fill-rule="nonzero"/></g></g></g></svg>